<svg width="449" height="143" viewBox="0 0 449 143" fill="none" xmlns="http://www.w3.org/2000/svg">
<rect x="38" y="111" width="32" height="32" rx="4" fill="#16A34A"/>
<rect x="1" y="111" width="32" height="32" rx="4" fill="#16A34A"/>
<rect x="75" y="74" width="32" height="32" rx="4" fill="#16A34A"/>
<rect x="38" y="74" width="32" height="32" rx="4" fill="#16A34A"/>
<rect x="1" y="74" width="32" height="32" rx="4" fill="#16A34A"/>
<rect x="37" y="37" width="32" height="32" rx="4" fill="#16A34A"/>
<rect y="37" width="32" height="32" rx="4" fill="#16A34A"/>
<rect x="74" width="32" height="32" rx="4" fill="#16A34A"/>
<rect x="37" width="32" height="32" rx="4" fill="#16A34A"/>
<rect width="32" height="32" rx="16" fill="#DC2626"/>
<path d="M125.943 74.7273V98H121.023V74.7273H125.943ZM149.457 74.7273V98H145.207L135.082 83.3523H134.912V98H129.991V74.7273H134.31L144.355 89.3636H144.56V74.7273H149.457ZM166.148 81.4205C166.057 80.5038 165.667 79.7917 164.977 79.2841C164.288 78.7765 163.352 78.5227 162.17 78.5227C161.367 78.5227 160.689 78.6364 160.136 78.8636C159.583 79.0833 159.159 79.3902 158.864 79.7841C158.576 80.178 158.432 80.625 158.432 81.125C158.417 81.5417 158.504 81.9053 158.693 82.2159C158.89 82.5265 159.159 82.7955 159.5 83.0227C159.841 83.2424 160.235 83.4356 160.682 83.6023C161.129 83.7614 161.606 83.8977 162.114 84.0114L164.205 84.5114C165.22 84.7386 166.152 85.0417 167 85.4205C167.848 85.7992 168.583 86.2652 169.205 86.8182C169.826 87.3712 170.307 88.0227 170.648 88.7727C170.996 89.5227 171.174 90.3826 171.182 91.3523C171.174 92.7765 170.811 94.0114 170.091 95.0568C169.379 96.0947 168.348 96.9015 167 97.4773C165.659 98.0455 164.042 98.3295 162.148 98.3295C160.269 98.3295 158.633 98.0417 157.239 97.4659C155.852 96.8902 154.769 96.0379 153.989 94.9091C153.216 93.7727 152.811 92.3674 152.773 90.6932H157.534C157.587 91.4735 157.811 92.125 158.205 92.6477C158.606 93.1629 159.14 93.553 159.807 93.8182C160.481 94.0758 161.242 94.2045 162.091 94.2045C162.924 94.2045 163.648 94.0833 164.261 93.8409C164.883 93.5985 165.364 93.2614 165.705 92.8295C166.045 92.3977 166.216 91.9015 166.216 91.3409C166.216 90.8182 166.061 90.3788 165.75 90.0227C165.447 89.6667 165 89.3636 164.409 89.1136C163.826 88.8636 163.11 88.6364 162.261 88.4318L159.727 87.7955C157.765 87.3182 156.216 86.572 155.08 85.5568C153.943 84.5417 153.379 83.1742 153.386 81.4545C153.379 80.0455 153.754 78.8144 154.511 77.7614C155.277 76.7083 156.326 75.8864 157.659 75.2955C158.992 74.7045 160.508 74.4091 162.205 74.4091C163.932 74.4091 165.439 74.7045 166.727 75.2955C168.023 75.8864 169.03 76.7083 169.75 77.7614C170.47 78.8144 170.841 80.0341 170.864 81.4205H166.148ZM173.605 78.7841V74.7273H192.719V78.7841H185.594V98H180.73V78.7841H173.605ZM200.787 74.7273V98H195.866V74.7273H200.787ZM203.949 78.7841V74.7273H223.062V78.7841H215.938V98H211.074V78.7841H203.949ZM240.585 74.7273H245.506V89.8409C245.506 91.5379 245.1 93.0227 244.29 94.2955C243.487 95.5682 242.362 96.5606 240.915 97.2727C239.468 97.9773 237.782 98.3295 235.858 98.3295C233.926 98.3295 232.237 97.9773 230.79 97.2727C229.343 96.5606 228.218 95.5682 227.415 94.2955C226.612 93.0227 226.21 91.5379 226.21 89.8409V74.7273H231.131V89.4205C231.131 90.3068 231.324 91.0947 231.71 91.7841C232.104 92.4735 232.657 93.0152 233.369 93.4091C234.081 93.803 234.911 94 235.858 94C236.813 94 237.642 93.803 238.347 93.4091C239.059 93.0152 239.608 92.4735 239.994 91.7841C240.388 91.0947 240.585 90.3068 240.585 89.4205V74.7273ZM248.668 78.7841V74.7273H267.781V78.7841H260.656V98H255.793V78.7841H248.668ZM291.253 86.3636C291.253 88.9015 290.772 91.0606 289.81 92.8409C288.855 94.6212 287.552 95.9811 285.901 96.9205C284.257 97.8523 282.408 98.3182 280.355 98.3182C278.287 98.3182 276.431 97.8485 274.787 96.9091C273.143 95.9697 271.844 94.6098 270.889 92.8295C269.935 91.0492 269.457 88.8939 269.457 86.3636C269.457 83.8258 269.935 81.6667 270.889 79.8864C271.844 78.1061 273.143 76.75 274.787 75.8182C276.431 74.8788 278.287 74.4091 280.355 74.4091C282.408 74.4091 284.257 74.8788 285.901 75.8182C287.552 76.75 288.855 78.1061 289.81 79.8864C290.772 81.6667 291.253 83.8258 291.253 86.3636ZM286.264 86.3636C286.264 84.7197 286.018 83.3333 285.526 82.2045C285.041 81.0758 284.355 80.2197 283.469 79.6364C282.582 79.053 281.545 78.7614 280.355 78.7614C279.166 78.7614 278.128 79.053 277.241 79.6364C276.355 80.2197 275.666 81.0758 275.173 82.2045C274.688 83.3333 274.446 84.7197 274.446 86.3636C274.446 88.0076 274.688 89.3939 275.173 90.5227C275.666 91.6515 276.355 92.5076 277.241 93.0909C278.128 93.6742 279.166 93.9659 280.355 93.9659C281.545 93.9659 282.582 93.6742 283.469 93.0909C284.355 92.5076 285.041 91.6515 285.526 90.5227C286.018 89.3939 286.264 88.0076 286.264 86.3636ZM302.304 98V74.7273H317.713V78.7841H307.224V84.3295H316.69V88.3864H307.224V98H302.304ZM321.023 98V74.7273H336.705V78.7841H325.943V84.3295H335.898V88.3864H325.943V93.9432H336.75V98H321.023ZM348.866 98H340.616V74.7273H348.935C351.276 74.7273 353.291 75.1932 354.98 76.125C356.67 77.0492 357.969 78.3788 358.878 80.1136C359.795 81.8485 360.253 83.9242 360.253 86.3409C360.253 88.7652 359.795 90.8485 358.878 92.5909C357.969 94.3333 356.662 95.6705 354.957 96.6023C353.26 97.5341 351.23 98 348.866 98ZM345.537 93.7841H348.662C350.116 93.7841 351.34 93.5265 352.332 93.0114C353.332 92.4886 354.082 91.6818 354.582 90.5909C355.09 89.4924 355.344 88.0758 355.344 86.3409C355.344 84.6212 355.09 83.2159 354.582 82.125C354.082 81.0341 353.336 80.2311 352.344 79.7159C351.351 79.2008 350.128 78.9432 348.673 78.9432H345.537V93.7841ZM363.898 98V74.7273H379.58V78.7841H368.818V84.3295H378.773V88.3864H368.818V93.9432H379.625V98H363.898ZM383.491 98V74.7273H392.673C394.431 74.7273 395.931 75.0417 397.173 75.6705C398.423 76.2917 399.374 77.1742 400.026 78.3182C400.685 79.4545 401.014 80.7917 401.014 82.3295C401.014 83.875 400.681 85.2045 400.014 86.3182C399.348 87.4242 398.382 88.2727 397.116 88.8636C395.859 89.4545 394.336 89.75 392.548 89.75H386.401V85.7955H391.753C392.692 85.7955 393.473 85.6667 394.094 85.4091C394.715 85.1515 395.177 84.7652 395.48 84.25C395.791 83.7348 395.946 83.0947 395.946 82.3295C395.946 81.5568 395.791 80.9053 395.48 80.375C395.177 79.8447 394.711 79.4432 394.082 79.1705C393.461 78.8902 392.677 78.75 391.73 78.75H388.412V98H383.491ZM396.06 87.4091L401.844 98H396.412L390.753 87.4091H396.06ZM408.503 98H403.23L411.264 74.7273H417.605L425.628 98H420.355L414.526 80.0455H414.344L408.503 98ZM408.173 88.8523H420.628V92.6932H408.173V88.8523ZM428.429 98V74.7273H433.349V93.9432H443.327V98H428.429Z" fill="#111827"/>
<path d="M121.114 45.5455H123.636L129.568 60.0341H129.773L135.705 45.5455H138.227V63H136.25V49.7386H136.08L130.625 63H128.716L123.261 49.7386H123.091V63H121.114V45.5455ZM146.045 63.3068C145.215 63.3068 144.462 63.1506 143.786 62.8381C143.11 62.5199 142.573 62.0625 142.175 61.4659C141.778 60.8636 141.579 60.1364 141.579 59.2841C141.579 58.5341 141.727 57.9261 142.022 57.4602C142.317 56.9886 142.712 56.6193 143.207 56.3523C143.701 56.0852 144.246 55.8864 144.843 55.7557C145.445 55.6193 146.05 55.5114 146.658 55.4318C147.454 55.3295 148.099 55.2528 148.593 55.2017C149.093 55.1449 149.457 55.0511 149.684 54.9205C149.917 54.7898 150.033 54.5625 150.033 54.2386V54.1705C150.033 53.3295 149.803 52.6761 149.343 52.2102C148.888 51.7443 148.198 51.5114 147.272 51.5114C146.312 51.5114 145.559 51.7216 145.013 52.142C144.468 52.5625 144.085 53.0114 143.863 53.4886L141.954 52.8068C142.295 52.0114 142.749 51.392 143.317 50.9489C143.891 50.5 144.516 50.1875 145.192 50.0114C145.874 49.8295 146.545 49.7386 147.204 49.7386C147.624 49.7386 148.107 49.7898 148.653 49.892C149.204 49.9886 149.735 50.1903 150.246 50.4972C150.763 50.804 151.192 51.267 151.533 51.8864C151.874 52.5057 152.045 53.3352 152.045 54.375V63H150.033V61.2273H149.931C149.795 61.5114 149.567 61.8153 149.249 62.1392C148.931 62.4631 148.508 62.7386 147.979 62.9659C147.451 63.1932 146.806 63.3068 146.045 63.3068ZM146.352 61.5C147.147 61.5 147.817 61.3438 148.363 61.0312C148.914 60.7188 149.329 60.3153 149.607 59.821C149.891 59.3267 150.033 58.8068 150.033 58.2614V56.4205C149.948 56.5227 149.761 56.6165 149.471 56.7017C149.187 56.7812 148.857 56.8523 148.482 56.9148C148.113 56.9716 147.752 57.0227 147.4 57.0682C147.053 57.108 146.772 57.142 146.556 57.1705C146.033 57.2386 145.545 57.3494 145.09 57.5028C144.641 57.6506 144.278 57.875 143.999 58.1761C143.727 58.4716 143.59 58.875 143.59 59.3864C143.59 60.0852 143.849 60.6136 144.366 60.9716C144.888 61.3239 145.55 61.5 146.352 61.5ZM155.716 67.9091V49.9091H157.659V51.9886H157.898C158.045 51.7614 158.25 51.4716 158.511 51.1193C158.778 50.7614 159.159 50.4432 159.653 50.1648C160.153 49.8807 160.83 49.7386 161.682 49.7386C162.784 49.7386 163.756 50.0142 164.597 50.5653C165.438 51.1165 166.094 51.8977 166.565 52.9091C167.037 53.9205 167.273 55.1136 167.273 56.4886C167.273 57.875 167.037 59.0767 166.565 60.0938C166.094 61.1051 165.44 61.8892 164.605 62.446C163.77 62.9972 162.807 63.2727 161.716 63.2727C160.875 63.2727 160.202 63.1335 159.696 62.8551C159.19 62.571 158.801 62.25 158.528 61.892C158.256 61.5284 158.045 61.2273 157.898 60.9886H157.727V67.9091H155.716ZM157.693 56.4545C157.693 57.4432 157.838 58.3153 158.128 59.071C158.418 59.821 158.841 60.4091 159.398 60.8352C159.955 61.2557 160.636 61.4659 161.443 61.4659C162.284 61.4659 162.986 61.2443 163.548 60.8011C164.116 60.3523 164.543 59.75 164.827 58.9943C165.116 58.233 165.261 57.3864 165.261 56.4545C165.261 55.5341 165.119 54.7045 164.835 53.9659C164.557 53.2216 164.134 52.6335 163.565 52.2017C163.003 51.7642 162.295 51.5455 161.443 51.5455C160.625 51.5455 159.938 51.7528 159.381 52.1676C158.824 52.5767 158.403 53.1506 158.119 53.8892C157.835 54.6222 157.693 55.4773 157.693 56.4545ZM174.193 63.3068C173.364 63.3068 172.611 63.1506 171.935 62.8381C171.259 62.5199 170.722 62.0625 170.324 61.4659C169.926 60.8636 169.727 60.1364 169.727 59.2841C169.727 58.5341 169.875 57.9261 170.17 57.4602C170.466 56.9886 170.861 56.6193 171.355 56.3523C171.849 56.0852 172.395 55.8864 172.991 55.7557C173.594 55.6193 174.199 55.5114 174.807 55.4318C175.602 55.3295 176.247 55.2528 176.741 55.2017C177.241 55.1449 177.605 55.0511 177.832 54.9205C178.065 54.7898 178.182 54.5625 178.182 54.2386V54.1705C178.182 53.3295 177.952 52.6761 177.491 52.2102C177.037 51.7443 176.347 51.5114 175.42 51.5114C174.46 51.5114 173.707 51.7216 173.162 52.142C172.616 52.5625 172.233 53.0114 172.011 53.4886L170.102 52.8068C170.443 52.0114 170.898 51.392 171.466 50.9489C172.04 50.5 172.665 50.1875 173.341 50.0114C174.023 49.8295 174.693 49.7386 175.352 49.7386C175.773 49.7386 176.256 49.7898 176.801 49.892C177.352 49.9886 177.884 50.1903 178.395 50.4972C178.912 50.804 179.341 51.267 179.682 51.8864C180.023 52.5057 180.193 53.3352 180.193 54.375V63H178.182V61.2273H178.08C177.943 61.5114 177.716 61.8153 177.398 62.1392C177.08 62.4631 176.656 62.7386 176.128 62.9659C175.599 63.1932 174.955 63.3068 174.193 63.3068ZM174.5 61.5C175.295 61.5 175.966 61.3438 176.511 61.0312C177.063 60.7188 177.477 60.3153 177.756 59.821C178.04 59.3267 178.182 58.8068 178.182 58.2614V56.4205C178.097 56.5227 177.909 56.6165 177.619 56.7017C177.335 56.7812 177.006 56.8523 176.631 56.9148C176.261 56.9716 175.901 57.0227 175.548 57.0682C175.202 57.108 174.92 57.142 174.705 57.1705C174.182 57.2386 173.693 57.3494 173.239 57.5028C172.79 57.6506 172.426 57.875 172.148 58.1761C171.875 58.4716 171.739 58.875 171.739 59.3864C171.739 60.0852 171.997 60.6136 172.514 60.9716C173.037 61.3239 173.699 61.5 174.5 61.5ZM193.001 45.5455V63H190.887V45.5455H193.001ZM198.977 55.125V63H196.966V49.9091H198.909V51.9545H199.08C199.386 51.2898 199.852 50.7557 200.477 50.3523C201.102 49.9432 201.909 49.7386 202.898 49.7386C203.784 49.7386 204.56 49.9205 205.224 50.2841C205.889 50.642 206.406 51.1875 206.776 51.9205C207.145 52.6477 207.33 53.5682 207.33 54.6818V63H205.318V54.8182C205.318 53.7898 205.051 52.9886 204.517 52.4148C203.983 51.8352 203.25 51.5455 202.318 51.5455C201.676 51.5455 201.102 51.6847 200.597 51.9631C200.097 52.2415 199.702 52.6477 199.412 53.1818C199.122 53.7159 198.977 54.3636 198.977 55.125ZM216.698 49.9091V51.6136H209.914V49.9091H216.698ZM211.891 46.7727H213.903V59.25C213.903 59.8182 213.985 60.2443 214.15 60.5284C214.32 60.8068 214.536 60.9943 214.798 61.0909C215.065 61.1818 215.346 61.2273 215.641 61.2273C215.863 61.2273 216.045 61.2159 216.187 61.1932C216.329 61.1648 216.442 61.142 216.528 61.125L216.937 62.9318C216.8 62.983 216.61 63.0341 216.366 63.0852C216.121 63.142 215.812 63.1705 215.437 63.1705C214.869 63.1705 214.312 63.0483 213.766 62.804C213.227 62.5597 212.778 62.1875 212.42 61.6875C212.067 61.1875 211.891 60.5568 211.891 59.7955V46.7727ZM225.072 63.2727C223.81 63.2727 222.722 62.9943 221.808 62.4375C220.898 61.875 220.197 61.0909 219.702 60.0852C219.214 59.0739 218.969 57.8977 218.969 56.5568C218.969 55.2159 219.214 54.0341 219.702 53.0114C220.197 51.983 220.884 51.1818 221.765 50.608C222.651 50.0284 223.685 49.7386 224.867 49.7386C225.549 49.7386 226.222 49.8523 226.887 50.0795C227.552 50.3068 228.157 50.6761 228.702 51.1875C229.248 51.6932 229.683 52.3636 230.006 53.1989C230.33 54.0341 230.492 55.0625 230.492 56.2841V57.1364H220.401V55.3977H228.447C228.447 54.6591 228.299 54 228.004 53.4205C227.714 52.8409 227.299 52.3835 226.759 52.0483C226.225 51.7131 225.594 51.5455 224.867 51.5455C224.066 51.5455 223.373 51.7443 222.788 52.142C222.208 52.5341 221.762 53.0455 221.45 53.6761C221.137 54.3068 220.981 54.983 220.981 55.7045V56.8636C220.981 57.8523 221.151 58.6903 221.492 59.3778C221.839 60.0597 222.319 60.5795 222.933 60.9375C223.546 61.2898 224.259 61.4659 225.072 61.4659C225.6 61.4659 226.077 61.392 226.504 61.2443C226.935 61.0909 227.308 60.8636 227.62 60.5625C227.933 60.2557 228.174 59.875 228.344 59.4205L230.288 59.9659C230.083 60.625 229.739 61.2045 229.256 61.7045C228.773 62.1989 228.177 62.5852 227.467 62.8636C226.756 63.1364 225.958 63.2727 225.072 63.2727ZM233.552 63V49.9091H235.495V51.8864H235.631C235.87 51.2386 236.302 50.7131 236.927 50.3097C237.552 49.9062 238.256 49.7045 239.04 49.7045C239.188 49.7045 239.373 49.7074 239.594 49.7131C239.816 49.7187 239.984 49.7273 240.097 49.7386V51.7841C240.029 51.767 239.873 51.7415 239.629 51.7074C239.39 51.6676 239.137 51.6477 238.87 51.6477C238.234 51.6477 237.665 51.7812 237.165 52.0483C236.671 52.3097 236.279 52.6733 235.989 53.1392C235.705 53.5994 235.563 54.125 235.563 54.7159V63H233.552ZM246.334 63.3068C245.504 63.3068 244.751 63.1506 244.075 62.8381C243.399 62.5199 242.862 62.0625 242.464 61.4659C242.067 60.8636 241.868 60.1364 241.868 59.2841C241.868 58.5341 242.016 57.9261 242.311 57.4602C242.607 56.9886 243.001 56.6193 243.496 56.3523C243.99 56.0852 244.536 55.8864 245.132 55.7557C245.734 55.6193 246.339 55.5114 246.947 55.4318C247.743 55.3295 248.388 55.2528 248.882 55.2017C249.382 55.1449 249.746 55.0511 249.973 54.9205C250.206 54.7898 250.322 54.5625 250.322 54.2386V54.1705C250.322 53.3295 250.092 52.6761 249.632 52.2102C249.178 51.7443 248.487 51.5114 247.561 51.5114C246.601 51.5114 245.848 51.7216 245.303 52.142C244.757 52.5625 244.374 53.0114 244.152 53.4886L242.243 52.8068C242.584 52.0114 243.038 51.392 243.607 50.9489C244.18 50.5 244.805 50.1875 245.482 50.0114C246.163 49.8295 246.834 49.7386 247.493 49.7386C247.913 49.7386 248.396 49.7898 248.942 49.892C249.493 49.9886 250.024 50.1903 250.536 50.4972C251.053 50.804 251.482 51.267 251.822 51.8864C252.163 52.5057 252.334 53.3352 252.334 54.375V63H250.322V61.2273H250.22C250.084 61.5114 249.857 61.8153 249.538 62.1392C249.22 62.4631 248.797 62.7386 248.268 62.9659C247.74 63.1932 247.095 63.3068 246.334 63.3068ZM246.641 61.5C247.436 61.5 248.107 61.3438 248.652 61.0312C249.203 60.7188 249.618 60.3153 249.896 59.821C250.18 59.3267 250.322 58.8068 250.322 58.2614V56.4205C250.237 56.5227 250.05 56.6165 249.76 56.7017C249.476 56.7812 249.146 56.8523 248.771 56.9148C248.402 56.9716 248.041 57.0227 247.689 57.0682C247.342 57.108 247.061 57.142 246.845 57.1705C246.322 57.2386 245.834 57.3494 245.379 57.5028C244.93 57.6506 244.567 57.875 244.288 58.1761C244.016 58.4716 243.879 58.875 243.879 59.3864C243.879 60.0852 244.138 60.6136 244.655 60.9716C245.178 61.3239 245.839 61.5 246.641 61.5ZM261.698 49.9091V51.6136H254.914V49.9091H261.698ZM256.891 46.7727H258.903V59.25C258.903 59.8182 258.985 60.2443 259.15 60.5284C259.32 60.8068 259.536 60.9943 259.798 61.0909C260.065 61.1818 260.346 61.2273 260.641 61.2273C260.863 61.2273 261.045 61.2159 261.187 61.1932C261.329 61.1648 261.442 61.142 261.528 61.125L261.937 62.9318C261.8 62.983 261.61 63.0341 261.366 63.0852C261.121 63.142 260.812 63.1705 260.437 63.1705C259.869 63.1705 259.312 63.0483 258.766 62.804C258.227 62.5597 257.778 62.1875 257.42 61.6875C257.067 61.1875 256.891 60.5568 256.891 59.7955V46.7727ZM264.724 63V49.9091H266.735V63H264.724ZM265.746 47.7273C265.354 47.7273 265.016 47.5938 264.732 47.3267C264.454 47.0597 264.315 46.7386 264.315 46.3636C264.315 45.9886 264.454 45.6676 264.732 45.4006C265.016 45.1335 265.354 45 265.746 45C266.138 45 266.474 45.1335 266.752 45.4006C267.036 45.6676 267.178 45.9886 267.178 46.3636C267.178 46.7386 267.036 47.0597 266.752 47.3267C266.474 47.5938 266.138 47.7273 265.746 47.7273ZM281.124 49.9091L276.283 63H274.237L269.396 49.9091H271.578L275.192 60.3409H275.328L278.942 49.9091H281.124ZM288.628 63.2727C287.446 63.2727 286.409 62.9915 285.517 62.429C284.631 61.8665 283.938 61.0795 283.438 60.0682C282.943 59.0568 282.696 57.875 282.696 56.5227C282.696 55.1591 282.943 53.9687 283.438 52.9517C283.938 51.9347 284.631 51.1449 285.517 50.5824C286.409 50.0199 287.446 49.7386 288.628 49.7386C289.81 49.7386 290.844 50.0199 291.73 50.5824C292.622 51.1449 293.315 51.9347 293.81 52.9517C294.31 53.9687 294.56 55.1591 294.56 56.5227C294.56 57.875 294.31 59.0568 293.81 60.0682C293.315 61.0795 292.622 61.8665 291.73 62.429C290.844 62.9915 289.81 63.2727 288.628 63.2727ZM288.628 61.4659C289.526 61.4659 290.264 61.2358 290.844 60.7756C291.423 60.3153 291.852 59.7102 292.131 58.9602C292.409 58.2102 292.548 57.3977 292.548 56.5227C292.548 55.6477 292.409 54.8324 292.131 54.0767C291.852 53.321 291.423 52.7102 290.844 52.2443C290.264 51.7784 289.526 51.5455 288.628 51.5455C287.73 51.5455 286.991 51.7784 286.412 52.2443C285.832 52.7102 285.403 53.321 285.125 54.0767C284.847 54.8324 284.707 55.6477 284.707 56.5227C284.707 57.3977 284.847 58.2102 285.125 58.9602C285.403 59.7102 285.832 60.3153 286.412 60.7756C286.991 61.2358 287.73 61.4659 288.628 61.4659Z" fill="#111827"/>
</svg>
